<svg width="17" height="13" viewBox="0 0 17 13" fill="none" xmlns="http://www.w3.org/2000/svg">
<path fill-rule="evenodd" clip-rule="evenodd" d="M11.1168 4.19332L10.8538 4.85714L9.68972 7.79549L9.11864 9.23699L7.68331 12.86H9.45749L10.185 10.8926H13.7717L14.512 12.86H16.35L12.9165 4.19332H11.1778H11.1168ZM10.9686 8.79478L10.7339 9.42319H11.4536H13.2356L11.9848 6.07359L10.9686 8.79478ZM9.8772 3.70223C9.9039 3.6348 9.93572 3.57044 9.97209 3.50953H6.76907V0.859985H5.27598V3.50953H0.890778V4.85714H4.66464C3.7006 6.65014 2.10171 8.37462 0.349976 9.28829C0.67916 9.57378 1.16118 10.0991 1.39631 10.4531C2.90116 9.53948 4.25316 8.08911 5.27598 6.43315V11.5267H6.76907V6.37605C7.16949 7.01255 7.61746 7.62168 8.10208 8.18291L8.66994 6.74954C8.15189 6.15051 7.69629 5.50698 7.33338 4.85714H9.41966L9.8772 3.70223Z" fill="white"/>
</svg>
