<svg width="35" height="36" viewBox="0 0 35 36" fill="none" xmlns="http://www.w3.org/2000/svg">
<path fill-rule="evenodd" clip-rule="evenodd" d="M3.97727 0.5C1.78069 0.5 0 2.28069 0 4.47727V31.5227C0 33.7193 1.78069 35.5 3.97727 35.5H31.0227C33.2193 35.5 35 33.7193 35 31.5227V4.47727C35 2.28069 33.2193 0.5 31.0227 0.5H3.97727ZM17.4 14.2264C18.0746 14.2264 18.6855 14.1118 19.2455 13.8827C19.7927 13.6536 20.2764 13.3355 20.6836 12.9155C21.0909 12.4955 21.4091 12.0118 21.6382 11.4391C21.8546 10.8791 21.9691 10.2682 21.9691 9.59364C21.9691 8.91909 21.8546 8.30818 21.6382 7.73545C21.4091 7.17545 21.0909 6.69182 20.6836 6.27182C20.2764 5.85182 19.7927 5.53364 19.2455 5.30455C18.6855 5.07545 18.0746 4.96091 17.4 4.96091C16.7382 4.96091 16.1273 5.07545 15.58 5.30455C15.02 5.53364 14.5364 5.85182 14.1418 6.27182C13.7346 6.69182 13.4164 7.17545 13.2 7.73545C12.9709 8.30818 12.8564 8.91909 12.8564 9.59364C12.8564 10.2682 12.9709 10.8791 13.2 11.4391C13.4164 12.0118 13.7346 12.4955 14.1418 12.9155C14.5364 13.3355 15.02 13.6536 15.58 13.8827C16.1273 14.1118 16.7382 14.2264 17.4 14.2264ZM17.4 12.3936C16.9291 12.3936 16.5091 12.2791 16.14 12.0373C15.7709 11.8082 15.4782 11.4773 15.2746 11.0573C15.0582 10.6373 14.9564 10.1536 14.9564 9.59364C14.9564 9.03364 15.0582 8.53727 15.2746 8.11727C15.4782 7.69727 15.7709 7.37909 16.14 7.13727C16.5091 6.90818 16.9291 6.79364 17.4 6.79364C17.8836 6.79364 18.3164 6.90818 18.6855 7.13727C19.0546 7.37909 19.3346 7.69727 19.5509 8.11727C19.7673 8.53727 19.8691 9.03364 19.8691 9.59364C19.8691 10.1536 19.7673 10.6373 19.5509 11.0573C19.3346 11.4773 19.0546 11.8082 18.6855 12.0373C18.3164 12.2791 17.8836 12.3936 17.4 12.3936ZM9.44077 14.0227V6.95909H12.2535V5.16455H4.55353V6.95909H7.36626V14.0227H9.44077ZM25.419 14.0227H23.3444V5.16455H27.0099C27.7354 5.16455 28.3717 5.29182 28.8935 5.54636C29.4154 5.80091 29.8226 6.15727 30.1026 6.61545C30.3826 7.07364 30.5226 7.60818 30.5226 8.21909C30.5226 8.83 30.3826 9.36455 30.1026 9.82273C29.8226 10.2936 29.4154 10.65 28.8935 10.9045C28.3717 11.1591 27.7354 11.2864 27.0099 11.2864H25.419V14.0227ZM25.419 6.92091V9.53H26.7044C27.3026 9.53 27.7354 9.41545 28.0154 9.18636C28.2826 8.97 28.4226 8.63909 28.4226 8.21909C28.4226 7.79909 28.2826 7.48091 28.0154 7.25182C27.7354 7.03545 27.3026 6.92091 26.7044 6.92091H25.419ZM8.95753 32.3182H12.728V15.3989L5.16318 17.3795V20.6489L8.95753 19.5989V32.3182ZM28.008 31.6023C26.9818 32.3182 25.7648 32.6761 24.4045 32.6761C23.0443 32.6761 21.8511 32.3182 20.825 31.6023C19.7989 30.9102 18.9875 29.908 18.4386 28.5955C17.8898 27.3068 17.6034 25.7795 17.6034 24.0136C17.6034 22.2716 17.8898 20.7443 18.4386 19.4318C18.9875 18.1193 19.7989 17.117 20.825 16.4011C21.8511 15.7091 23.0443 15.3511 24.4045 15.3511C25.7648 15.3511 26.9818 15.7091 28.008 16.4011C29.0341 17.117 29.8216 18.1193 30.3705 19.4318C30.9193 20.7443 31.2057 22.2716 31.2057 24.0136C31.2057 25.7795 30.9193 27.3068 30.3705 28.5955C29.8216 29.908 29.0341 30.9102 28.008 31.6023ZM22.233 27.9273C22.758 28.858 23.4739 29.3352 24.4045 29.3352C25.3352 29.3352 26.0511 28.858 26.5761 27.9273C27.1011 26.9966 27.3636 25.708 27.3636 24.0136C27.3636 22.3193 27.1011 21.0068 26.5761 20.0761C26.0511 19.1455 25.3352 18.692 24.4045 18.692C23.4739 18.692 22.758 19.1455 22.233 20.0761C21.708 21.0068 21.4455 22.3193 21.4455 24.0136C21.4455 25.708 21.708 26.9966 22.233 27.9273Z" fill="#E50911"/>
</svg>
